<?xml version="1.0" encoding="iso-8859-1"?>
<!-- Generator: Adobe Illustrator 15.1.0, SVG Export Plug-In . SVG Version: 6.00 Build 0)  -->
<!DOCTYPE svg PUBLIC "-//W3C//DTD SVG 1.1//EN" "http://www.w3.org/Graphics/SVG/1.1/DTD/svg11.dtd">
<svg version="1.1" id="storeMap" xmlns="http://www.w3.org/2000/svg" xmlns:xlink="http://www.w3.org/1999/xlink" x="0px" y="0px" width="1280px"
	 height="431.645px" viewBox="0 0 1280 431.645" style="enable-background:new 0 0 1280 431.645;" xml:space="preserve">
	<path id="3" style="fill:#3FAFFF;" d="M354.469,123.248l-124.685,1.065l8.479-111.326l117.896-0.35L354.469,123.248z"/>
	<path id="4" style="fill:#FF0036;" d="M493.015,123.248l-121.234-0.425l5.029-109.836l117.896-0.35L493.015,123.248z"/>
	<path id="10" style="fill:#FF0036;" d="M724.26,179.729H551.62l2.812-166.742l166.631-0.57L724.26,179.729z"/>
	<path id="7" style="fill:#077F00;" d="M902.516,123.534H784.574l-1.741-110.547l117.896-0.35L902.516,123.534z"/>
	<path id="8" style="fill:#7D1FFF;" d="M1048.876,123.534H923.83l-1.741-110.547l117.896-0.35L1048.876,123.534z"/>
	<path id="6" style="fill:#323232;" d="M922.769,296.644l124.685-1.065l-8.479,111.327l-117.896,0.35L922.769,296.644z"/>
	<path id="5" style="fill:#DFD000;" d="M784.223,296.644l121.234,0.425l-5.028,109.837l-117.896,0.35L784.223,296.644z"/>
	<path id="9" style="fill:#3FB6FF;" d="M552.978,240.163h172.64l-2.812,166.742l-166.631,0.57L552.978,240.163z"/>
	<path id="2" style="fill:#DF1800;" d="M374.722,296.358h117.941l1.742,110.547l-117.896,0.35L374.722,296.358z"/>
	<path id="1" style="fill:#00FF43;" d="M228.361,296.358h125.046l1.742,110.547l-117.896,0.35L228.361,296.358z"/>
</svg>
